<?xml version="1.0" encoding="utf-8"?>
<!-- Generator: Adobe Illustrator 16.0.0, SVG Export Plug-In . SVG Version: 6.00 Build 0)  -->
<!DOCTYPE svg PUBLIC "-//W3C//DTD SVG 1.1//EN" "http://www.w3.org/Graphics/SVG/1.1/DTD/svg11.dtd">
<svg version="1.1" id="Layer_1" xmlns="http://www.w3.org/2000/svg" xmlns:xlink="http://www.w3.org/1999/xlink" x="0px" y="0px"
	 width="6879.724px" height="8228.204px" viewBox="0 0 6879.724 8228.204" enable-background="new 0 0 6879.724 8228.204"
	 xml:space="preserve">
<g>
	<path fill="#FFFFFF" d="M569.943,4546.738c0,1718.165,1392.839,3111.004,3111.044,3111.004
		c1718.203,0,3111.004-1392.839,3111.004-3111.004S5399.19,1435.734,3680.987,1435.734
		C1962.782,1435.734,569.943,2828.572,569.943,4546.738"/>
	<path fill="#FDD1B0" d="M2246.694,2594.187c0,0,16.643,314.772-182.226,463.848l215.453,786.921c0,0-74.661,372.773-16.585,579.847
		c57.924,207.094,505.242,811.792,505.242,811.792s248.471,662.675,670.941,778.638c422.47,115.941,994.033-149.15,994.033-149.15
		s977.469-124.169,1159.695-530.093c0,0,637.827,173.942,919.41-455.584c281.66-629.524-240.244-853.186-397.582-778.656
		l-115.963-786.922c0,0-306.47,41.472-405.865-240.227l-116.038-397.584l-314.677-49.678c0,0-207.152-223.698-488.734-298.225
		c-281.66-74.548-488.734-41.436-488.734-41.436s-414.188-124.263-389.339-124.263c24.85,0-289.865,182.302-289.865,182.302
		s-232.021,0-339.736-107.678l-198.754,173.885l-265.056,314.809C2702.315,2726.732,2453.844,2453.356,2246.694,2594.187"/>
	<path fill="#FFFFFF" d="M432.606,2511.357c0,0-140.754,273.34-33.075,513.564c107.737,240.264,596.395,314.829,1076.884,256.792
		c480.413-57.962,935.997-381.018,679.167-836.602c0,0,497.055-331.377,505.338-737.263
		c8.303-405.828-256.792-588.13-256.792-588.13s99.32-704.054-356.225-927.713C1592.376-31.652,1111.886,92.612,648.041,457.081
		C184.174,821.572,10.194,1368.268,101.305,1790.718C192.457,2213.169,432.606,2511.357,432.606,2511.357"/>
	<path fill="#ED1C24" d="M2246.694,2594.187c0,0,289.943-91.113,414.244,157.358l273.32-323.037l231.866-190.469
		c0,0,240.264,140.791,339.736,107.678l339.563-173.98l364.451,149.074c0,0,190.547-57.962,463.924,8.303
		c273.3,66.282,472.129,339.621,472.129,339.621l314.754,91.132l132.566,314.733c0,0,207.036,314.811,405.865,240.227
		l82.831,331.377l-8.284,405.864l231.924,33.151c0,0,149.094-66.282,223.641-389.338
		c74.584-323.057-91.074-1333.638-389.338-1847.181c-298.15-513.603-505.262-795.224-1043.732-960.903
		c-538.355-165.66-1283.862,173.961-1640.03,331.358c-356.207,157.414-778.696,430.696-778.696,430.696
		s-8.206,430.734-488.62,753.788L2246.694,2594.187z"/>
	<path fill="#FFFFFF" d="M4110.479,1807.247c0,0,372.811-91.152,737.225,49.717c364.488,140.83,604.657,364.528,604.657,364.528
		s198.868-82.869,215.435-306.528c16.566-223.641-157.491-637.81-588.168-745.488c-430.678-107.679-820.092,33.075-960.865,289.865
		C3977.991,1716.134,4110.479,1807.247,4110.479,1807.247"/>
	<path fill="#ED1C24" d="M3249.05,5220.025c0,0,66.206,381.019,381.017,422.453c314.754,41.434,588.092-124.265,588.092-124.265
		L4002.8,5203.46c0,0-381.017-140.791-405.865-140.791C3572.047,5062.669,3249.05,5220.025,3249.05,5220.025"/>
	<path fill="#FFFFFF" d="M3224.124,4375.105l-57.962,405.922c0,0,405.886,256.793,670.979,372.716
		c265.094,115.981,654.355,124.265,654.355,124.265l215.473-356.207c0,0-173.98-132.528-215.473-157.356
		c-41.414-24.85-629.507-82.868-670.921-91.189C3779.161,4665.011,3224.124,4375.105,3224.124,4375.105"/>
	<path fill="#ED1C24" d="M2064.468,3058.034l215.434,786.939l-16.565,579.849l281.545,538.413l66.321,132.547l-886.317,952.562
		l-347.904,41.396l281.659-670.96c0,0-670.999-1051.94-927.771-2153.634c0,0,538.374,49.641,844.902-8.282
		C1882.281,3198.903,2064.468,3058.034,2064.468,3058.034"/>
	<path fill="#ED1C24" d="M2983.956,5667.326l-140.83,613l480.451,231.883l281.68,8.342l149.056,91.073l538.394-173.981
		l124.283-530.09c0,0-364.49,165.679-844.941,132.507C3091.635,6006.91,2983.956,5667.326,2983.956,5667.326"/>
	<path fill="#ED1C24" d="M5063.061,5907.553l24.849,654.354l463.885,347.942l207.075-140.83
		C5758.87,6769.02,5444.116,6164.306,5063.061,5907.553"/>
	<path fill="#FFFFFF" d="M5551.794,6909.832c0,0-364.489-397.623-820.054-447.301c-455.602-49.678-936.015,132.546-936.015,132.546
		s-99.396-107.735-356.206-66.301c-256.791,41.473-405.866,240.225-472.13,579.847c-66.283,339.621,49.64,596.432,198.754,596.432
		c149.112,0,381.093-207.094,381.093-207.094s16.49,389.3,215.357,546.677c198.83,157.396,447.281-41.396,447.281-41.396
		s91.112,182.226,256.771,124.207c165.623-57.962,215.359-322.999,215.359-322.999s149.131,149.075,298.225,74.529
		c149.133-74.529,173.942-198.792,165.697-372.773c-8.32-173.924,16.605-347.866,16.605-347.866L5551.794,6909.832z"/>
	<path fill="#FFFFFF" d="M3514.105,3687.578c0,0,240.207-298.149,554.96-240.225l107.641-347.866
		c0,0,58.019-430.734-248.451-497.017c-306.471-66.264-480.49,281.639-546.773,480.412
		C3315.275,3281.714,3340.086,3604.71,3514.105,3687.578"/>
	<path fill="#FFFFFF" d="M4607.497,3613.013c0,0,16.566-323.093,215.357-505.223c198.792-182.266,513.546-91.152,596.375,165.64
		c82.868,256.754-82.829,646.092-248.488,786.883c-165.623,140.869-281.623,74.587-281.623,74.587
		S4798.043,3786.994,4607.497,3613.013"/>
	<path fill="#884C2F" d="M2934.258,2428.508c0,0-298.188,281.623-405.866,563.28c-107.775,281.66-182.227,513.564-41.435,538.413
		c140.83,24.87,273.281-99.357,281.621-256.753c0,0,157.396,16.528,190.489-99.434
		C2992.257,3058.034,2934.258,2428.508,2934.258,2428.508"/>
	<path fill="#884C2F" d="M6081.945,3646.183c0,0-207.075,248.472-314.792,306.472c-107.756,57.98-149.094,289.866-24.925,405.847
		c0,0-91.038,157.435-57.866,306.51c33.131,149.111,182.225,240.264,281.582-49.72
		C6065.377,4325.389,6106.754,3960.955,6081.945,3646.183"/>
	<path fill="#2DC3E8" d="M3638.349,3579.918c0,0-82.829-202.97,24.85-422.487c107.679-219.462,269.103-327.18,385.178-273.321
		c115.962,53.859,111.763,153.256,111.763,153.256l-28.934,120.065l-20.727,103.537l-111.801-144.973
		c0,0-70.424,70.445-82.83,74.585c-12.443,4.142-74.546,91.113-74.546,111.783c0,20.765-12.444,103.537-16.643,124.302
		C3820.576,3447.333,3638.349,3579.918,3638.349,3579.918"/>
	<path fill="#2DC3E8" d="M4644.712,3459.798c8.321-12.426,207.151-70.388,207.151-70.388l66.227,99.397l-33.057,211.215
		l-99.472,78.688l78.706,202.973h41.416c0,0,149.094-70.481,198.792-352.084c49.697-281.621,16.643-410.027-140.812-459.705
		c-157.376-49.717-260.934,124.262-260.934,124.262L4644.712,3459.798z"/>
	<path fill="#0066AB" d="M2640.231,5108.205l-530.13,484.555l-381.056,480.451l-360.349-8.281l-115.999,194.687
		c0,0,29.01,140.793,29.01,153.217c0,12.387,550.837,525.95,550.837,525.95s476.271,285.803,492.876,294.084
		c16.547,8.283,650.214,223.661,650.214,223.661s53.859-592.196,53.859-604.677c0-12.426,285.801-298.226,285.801-298.226
		l-24.868-66.245l-447.301-190.547l153.179-612.922l-198.716-298.226l-58.037-169.84L2640.231,5108.205z"/>
	<polygon fill="#0066AB" points="4433.553,5841.271 4305.149,6470.795 4715.176,6458.408 5034.051,6545.381 5063.061,5907.553 
		4922.25,5779.167 	"/>
	<path fill="#FFF200" d="M1749.715,6847.709l381.055,227.802c0,0,306.509-107.642,372.696-381.057
		c66.321-273.338-4.065-488.658-227.763-534.232c-223.736-45.575-418.272,157.319-501.141,339.621
		c-82.849,182.227-28.99,331.338-28.99,331.338"/>
	<path fill="#ED1C24" d="M4350.724,1500.795l86.952,198.792c0,0,130.43-144.973,337.541-252.611l161.537,248.433l258.834-115.924
		c0,0,58.02,149.111,99.473,368.61l194.592-45.574c0,0-95.196-256.754-227.801-496.98l-277.423,128.406l-165.773-260.952
		C4818.656,1272.994,4632.345,1368.285,4350.724,1500.795"/>
	<path d="M5508.28,4702.302c95.656-202.551,6.223-453.522-18.627-453.522c-24.161,0-195.471,205.872-559.73,113.825
		c15.841-53.591,23.933-108.785,24.354-164.477c203.371-23.056,363.496-175.336,454.15-435.354
		c99.053-283.795,106.688-658.4-197.57-780.089c-121.916-48.762-246.198-36.299-359.221,36.015
		c-147.529,94.434-259.674,285.705-296.585,495.566c-60.538-39.314-126.496-72.027-196.845-96.075
		c-57.408-19.543-116.229-33.303-175.852-41.357c50.117-196.137,93.785-484.593-14.771-666.856
		c-49.965-83.993-126.191-137.338-226.426-158.56c-304.83-64.337-537.021,230.607-608.534,555.493
		c-54.22,246.601-15.438,465.948,100.409,590.67c-14.43,25.173-27.255,51.282-38.133,78.841
		c-6.146,15.955-11.699,31.852-16.585,47.846c-351.741-161.002-318.514-451.956-336.378-463.884
		c-18.646-12.426-308.227,136.803-323.055,403.842c-12.425,223.659,161.556,279.541,161.556,279.541s-80.845,236.085,62.065,391.419
		c60.938,66.13,133.978,88.098,196.406,92.125c-95.598,820.206,231.16,1077.895,439.781,1158.606
		c56.683,21.966,131.038,37.14,216.388,37.14c259.139,0,619.926-139.933,897.501-652.906
		c56.302,24.393,135.963,40.652,244.176,23.57c236.047-37.291,229.863-254.691,229.863-254.691S5402.664,4926,5508.28,4702.302
		 M4755.141,3269.557c32.674-35.461,114.014-107.814,214.325-79.854c40.69,11.337,73.479,39.908,97.526,85.006
		c54.85,103.231,53.896,272.708-2.596,442.299c-40.766,122.433-105.198,194.499-154.667,234.52
		c-13.321-36.396-29.391-72.16-48.132-106.935c31.414-25.841,72.943-77.544,106.266-181.882
		c63.211-198.123,12.367-327.139-91.188-356.147c-67.83-19.029-132.833,25.554-170.89,59.888
		C4720.176,3332.156,4736.627,3299.806,4755.141,3269.557 M4721.168,3523.961c14.275-45.88,54.201-74.261,89.09-63.361
		c35.002,10.839,51.721,56.949,37.445,102.753c-14.314,45.862-54.164,74.243-89.091,63.286
		C4723.573,3615.818,4706.854,3569.729,4721.168,3523.961 M5172.114,3079.581c235.854,94.357,221.655,408.501,137.795,648.841
		c-54.583,156.422-161.347,340.688-363.383,365.729c-4.617-30.878-11.565-61.548-20.382-92.084
		c57.408-42.046,136.573-122.853,185.394-269.312c60.652-182.093,60.385-366.551-0.688-481.425
		c-30.231-56.74-74.547-94.624-128.023-109.55c-45.309-12.52-86.647-9.389-123.176,1.356c15.535-13.551,31.529-25.861,48.172-36.53
		C4992.446,3052.386,5081.382,3043.319,5172.114,3079.581 M4784.913,4327.735c-85.311,269.043-370.711,298.11-489.383,298.11
		c-95.693,0-197.531-16.68-294.562-48.266c-214.25-69.813-381.284-202.971-458.083-365.387
		c-57.408-121.629-60.538-250.035-9.123-381.476c75.654-193.161,276.927-313.169,525.264-313.169
		c85.273,0,169.705,14.028,251.047,41.798C4655.401,3677.254,4877.324,4036.267,4784.913,4327.735 M3666.176,3214.552
		c75.157-241.312,240.474-340.671,364.604-314.409c76.035,16.108,95.082,88.021,99.51,132.585
		c-0.764,28.762-2.9,58.896-6.297,90.177c-15.994-37.654-42.828-72.714-88.061-81.417c-98.326-18.894-223.64,62.143-269.216,265.076
		c-11.526,51.471-18.016,91.11-21.223,121.801c-38.781,16.012-75.271,35.174-109.396,57.103
		C3630.868,3415.385,3633.731,3318.833,3666.176,3214.552 M3925.391,3264.746c13.78-46.052,53.248-74.968,88.365-64.546
		c35.078,10.4,52.445,56.187,38.742,102.221c-13.627,46.032-53.209,74.966-88.289,64.526
		C3929.132,3356.546,3911.802,3310.741,3925.391,3264.746 M3434.558,3129.355c60.423-274.676,246.466-526.274,484.955-475.813
		c71.646,15.135,123.48,51.053,158.368,109.834c21.146,35.289,35.537,79.664,44.011,131.213
		c-20.192-20.061-46.453-35.804-80.845-43.114c-146.269-30.995-338.305,78.651-422.317,348.267
		c-39.697,127.529-38.285,242.956-29.62,319.104c-34.773,26.93-66.607,56.876-94.548,90.16
		C3415.015,3506.537,3390.987,3327.364,3434.558,3129.355 M3563.727,4820.344c217.456,74.585,366.55-12.387,366.55-12.387
		s80.884,223.623,329.296,267.117c248.49,43.456,323.037-86.971,323.037-86.971s2.786,3.951,7.978,9.886
		c-41.415,77.829-84.586,146.191-128.863,206.348c-76.685-0.399-285.095-14.618-628.743-133.404
		c-333.878-115.467-517.592-269.503-585.878-335.918c2.538-68.153,8.684-142.033,18.76-221.465
		c7.539-2.216,12.157-3.818,12.157-3.818S3346.308,4745.76,3563.727,4820.344 M3623.501,5570.068
		c-98.021-37.961-226.503-125.084-305.574-323.8c58.974-44.45,226.638-143.291,457.111-51.092
		c215.319,86.112,279.521,256.145,298.491,341.701C3890.503,5620.052,3723.775,5608.792,3623.501,5570.068 M6593.314,3124.546
		c-12.292-90.845-28.056-189.86-47.523-298.435c-182.606-1018.408-649.507-1785.557-1261.149-1975.587
		c-655.615-203.641-1637.359,37.521-2517.913,679.833c-2.023-204.898-91.113-367.141-246.676-468.579
		c-6.165-4.009-12.825-7.615-19.315-11.337c17.711-328.399-50.995-887.538-626.777-1019.953
		C1252.716-112.422,600.404,272.737,314.602,651.732C28.839,1030.668-132.755,1608.494,140.66,2192.443
		c58.476,124.761,124.492,221.809,192.265,297.291c-49.757,107.067-113.157,309.369-24.505,529.004
		c55.537,137.586,165.487,234.556,318.836,294.313c10.307,38.342,20.785,76.226,31.529,113.785
		c-98.175,291.393-154.57,598.38-165.297,913.494c-29.067,852.671,275.647,1665.624,857.956,2289.101
		c431.078,461.404,976.114,777.779,1575.886,923.057c45.194,112.852,120.084,194.269,222.247,218.85
		c154.477,37.217,273.416-54.05,332.198-114.053c47.141,457.472,387.659,585.4,541.714,569.654
		c90.312-9.275,142.986-59.888,171.996-102.811c96.953,74.07,210.625,99.758,312.578,73.801
		c141.002-35.918,193.219-170.544,212.457-259.139c57.064,32.523,116.113,49.394,168.598,52.066
		c165.66,8.281,356.244-124.304,331.32-385.256c-14.658-153.789-4.849-279.693,5.648-357.561
		c243.986-134.686,471.711-302.102,677.182-500.261c600.002-578.837,946.169-1356.54,974.567-2189.935
		C6894.898,4056.095,6796.036,3568.239,6593.314,3124.546 M2733.825,1767.798c879.371-650.195,1841.686-942.791,2472.834-746.672
		c558.127,173.39,1012.279,879.619,1185.038,1842.983c151.192,843.529,60.118,1025.734-119.205,1173.569
		c-37.446-4.925-75.845-4.771-114.283,0.554c16.757-335.365-29.009-719.99-179.858-1121.008
		c-103.672-275.725-240.55-512.076-427.853-701.688c88.823-62.581,246.962-228.412,117.298-565.705
		c-207.113-538.414-812.383-668.058-1265.273-482.436c-376.514,154.247-382.354,439.763-357.086,579.39
		c-356.052,60.308-664.546,226.655-912.425,412.507c-217.17,162.912-359.089,313.284-461.729,458.886
		c-51.281-65.75-110.923-113.003-182.265-133.75c-79.412-23.149-154.704-11.107-208.964,5.648
		c-4.561-11.299-9.256-21.566-13.989-30.954c107.068-73.861,217.209-181.234,309.925-335.005
		C2651.777,1998.386,2703.441,1879.046,2733.825,1767.798 M5151.883,6521.618c6.26-177.166,1.184-332.617-5.307-442.414
		c161.652,147.166,354.07,363.155,515.148,659.738c-33.055,28.456-66.683,56.205-100.96,83.289
		C5494.348,6752.702,5355.217,6624.22,5151.883,6521.618 M4988.896,5947.918c5.229,100.997,12.786,294.428,7.52,506.368
		c-102.717-37.692-217.304-66.378-343.382-78.687c-84.623-8.323-163.827-10.555-237.457-8.551
		c49.544-191.808,69.24-353.974,76.416-429.876c72.409-8.531,214.25-31.243,375.521-73.955
		C4898.546,5882.951,4940.038,5910.93,4988.896,5947.918 M3348.407,6441.806c-0.306,0.133-0.611,0.248-1.012,0.362
		c-173.159-108.385-348.209-184.917-429.169-218.107c26.968-136.839,56.168-276.391,91.742-408.957
		c101.075,102.45,229.748,197.818,392.316,262.231c124.341,49.314,249.081,68.075,367.065,68.075
		c224.824-0.076,436.289-79.891,567.785-141.84c-23.017,151.938-60.882,296.202-83.631,375.425
		c-303.951,36.873-474.344,141.573-474.344,141.573S3559.642,6383.844,3348.407,6441.806 M2345.021,7157.021
		c-40.403-20.018-80.196-41.279-119.722-63.171c105.732-51.282,218.259-155.717,286.469-306.203
		c58.038-127.966,85.75-292.213,48.82-414.702c-38.495-127.814-107.603-216.732-218.621-260.36
		c-42.407-16.738-87.429-25.173-133.597-25.173c-194.325,0-371.704,147.318-471.022,362.695
		c-35.728,77.258-56.282,169.227-59.223,255.073c-26.737-23.97-53.151-48.323-79.185-73.248
		c39.908-185.471,138.445-431.098,374.453-743.046c260.227-343.991,530.797-588.36,636.796-678.842
		c25.671,30.02,52.142,60.061,80.235,90.255c17.901,51.854,77.905,212.569,204.517,381.284
		c-110.274,405.903-140.562,695.197-241.332,1018.043C2561.924,6993.824,2463.063,7098.031,2345.021,7157.021 M1790.748,6801.294
		c-13.722-94.511,9.027-220.968,51.664-309.218c81.304-168.276,230.454-280.535,371.914-280.535c30.632,0,66.645,6.031,94.51,16.967
		c74.814,29.487,124.244,99.416,142.891,186.368c20.994,97.944-1.87,203.715-43.151,308.665
		c-58.63,149.075-185.929,248.355-309.123,296.43C1992.537,6953.879,1889.362,6881.07,1790.748,6801.294 M2302.614,2813.686
		c13.378-66.569,15.516-125.123,11.413-176.213c64.031-19.22,178.045-25.823,270.438,117.508
		c-41.702,73.478-76.056,146.384-107.908,219.746c-60.52-101.514-120.79-106.59-134.589-82.333
		c-13.397,23.38,40.537,95.312,70.635,252.46c-52.771,174.496-63.821,343.305-12.387,434.874
		c-35.689,39.641-67.543,82.412-95.407,127.738c-65.004-273.681-113.232-520.587-136.249-643.63
		C2243.048,2985.548,2285.417,2899.55,2302.614,2813.686 M2884.542,3145.025c-46.55,83.25-157.415,78.706-157.415,78.706
		c12.442,190.471-146.995,320.994-207.074,260.913c-66.208-66.3-12.425-269.194,95.291-505.279
		c114.645-251.354,260.953-393.441,260.953-393.441C2855.493,2863.402,2963.248,3004.232,2884.542,3145.025 M2010.724,3187.433
		c78.325,312.023,156.461,570.38,203.602,719.112c-102.927,329.219-27.923,749.991,302.806,1187.958
		c-135.409,122.526-515.721,477.912-730.144,788.183c-26.967,39.047-51.625,77.235-74.451,114.433
		c-91.074,2.748-177.492,6.376-239.921,9.219c135.124-330.594,264.732-577.138,264.732-577.138s-254.846-329.275-521.924-981.628
		c-218.22-532.82-334.392-939.278-371.627-1078.391c174.038,26.739,381.36,23.018,613.933-8.798
		C1698.642,3327.479,1879.15,3265.605,2010.724,3187.433 M4431.456,5790.388l-18.59,1.185l-15.764,9.617
		c-4.772,2.845-448.084,296.89-936.894,110.484c-476.463-181.71-628.019-678.575-629.488-683.383l-5.019-16.644l-11.909-12.71
		c-577.386-597.902-603.571-1216.302-275.248-1548.251c129.169-11.259,254.253-168.312,250.704-298.512
		c0,0,219.499-12.424,236.083-252.648c16.604-240.266-53.819-294.122-16.584-641.971c0,0,52.656-63.745,151.154-150.163
		c45.462,39.719,140.754,104.015,282.709,104.015c3.054,0,5.688,0.114,8.207,0.19c-10.993,51.283-12.252,86.306-7.176,87.315
		c20.765,4.182,145.01-211.178,393.499-198.752c299.256,14.941,418.386,387.028,434.914,385.157
		c18.092-1.983,30.154-157.015-8.016-320.859c153.56-4.218,495.223,15.631,760.812,242.42
		c-139.398,112.831-225.549,260.36-206.196,268.986c8.474,3.761,314.868-169.819,550.914-53.859
		c236.046,115.926,161.537,414.17,182.225,418.349c4.275,0.782,20.842-21.585,40.996-58.915
		c53.209,104.644,156.384,220.262,352.542,220.262c10.42,0,21.261-0.896,32.025-1.754c14.732,89.889,20.191,155.639,21.756,184.171
		c0,0-24.657,128.521-132.527,231.903c-99.434,95.216-240.206,136.688-265.094,335.443
		c-20.078,160.793,95.312,227.782,95.312,227.782s-91.189,82.83-91.189,265.093c0,90.884,20.611,148.809,54.125,183.505
		c-10.688,104.644-50.766,360.462-199.059,537.135C5166.618,5715.346,4438.86,5789.97,4431.456,5790.388 M4638.53,1192.227
		c428.691-68.326,726.918,74.565,875.973,341.681c147.986,265.056,156.729,525.836-21.223,626.797
		c-177.379-161.938-396.553-285.725-670.426-365.844c-240.396-70.328-467.549-85.215-679.129-61.874
		C4109.907,1486.062,4239.762,1255.817,4638.53,1192.227 M4789.722,1906.681c781.044,215.49,1060.413,915.099,1158.396,1344.648
		c-156.384-3.701-257.345-166.614-289.79-228.222c51.721-169.398,62.829-393.632-152.109-503.466
		c-123.824-63.289-245.396-46.836-351.092,3.74c-339.105-316.949-788.944-316.874-940.938-306.28
		c-54.66-116.973-144.935-214.461-290.134-231.733c-232.992-27.674-361.817,133.637-426.784,282.672
		c-95.902,4.923-173.217-31.549-216.158-58.783C3580.064,1985.751,4109.45,1718.997,4789.722,1906.681 M5771.276,4714.728
		c-95.198-45.538-24.773-289.944,41.414-364.472c0,0-120.123-57.961-82.829-211.274c37.292-153.214,194.707-136.631,298.187-339.543
		c0,0,10.842,297.212-28.934,546.715C5953.5,4631.916,5848.342,4751.598,5771.276,4714.728 M5807.614,4870.575
		c76.15-11.145,175.354-83.211,249.023-272.288c158.406-121.247,247.42-46.07,269.674-90.597
		c10.191-20.44-82.41-100.96-219.632-75.349c5.954-25.995,11.565-53.287,16.642-82.049c9.047-50.899,16.604-103.573,22.559-157.795
		c82.945-21.07,168.18-5.324,232.688,44.868c93.402,72.507,135.313,210.836,117.908,389.377
		c-20.727,212.724-113.672,394.186-261.926,510.988c-139.551,110.024-323.342,159.551-534.92,145.199
		C5770.512,5121.853,5797.995,4958.329,5807.614,4870.575 M476.139,2925.506c-38.647-141.688-6.012-244.769,17.749-294.905
		c193.01,128.637,361.245,112.927,361.245,89.892c0-37.272-161.594-49.717-378.994-291.964
		C258.778,2186.26-2.193,1409.702,407.814,831.916c410.027-577.767,1031.27-726.88,1478.569-621.243
		c369.166,87.123,450.546,609.715,467.703,789.822c-63.382-10.555-132.069-10.667-201.292-1.412
		c-149.342-585.859-558.549-526.771-564.599-502.647c-5.935,23.837,269.465,134.112,406.573,540.188
		c-26.338,9.104-52.179,19.58-77.314,31.338c-45.423,21.3-89.261,46.835-130.505,75.004
		c-173.541-428.938-497.38-428.004-509.422-398.097c-11.909,30.02,247.745,117.928,372.066,508.905
		c-58.152,55.194-105.179,112.146-135.982,162.091c-23.322,38-43.857,79.186-60.462,121.84
		c-217.019-565.437-604.43-518.562-610.499-494.593c-6.164,24.85,472.207,273.357,459.744,770.356
		c-7.538,301.315-316.795,298.187-447.262,130.466c-141.23-181.482-66.264-476.233-87.009-484.594
		c-31.032-12.404-111.803,93.214-130.391,229.863c-18.724,136.728,54.527,559.789,409.931,565.343
		c288.264,4.541,393.596-183.542,429.8-287.404c36.701,39.984,89.032,69.299,160.448,82.391
		c445.03,81.78,624.946-259.56,608.762-291.967c-18.55-37.254-142.814,93.175-347.828,124.246
		c-205.052,31.051-323.074-24.81-285.877-242.286c37.368-217.439,354.165-465.948,615.155-459.744
		c260.894,6.259,434.875,236.083,279.503,689.604c-155.335,453.522-677.183,689.607-683.347,726.861
		c-3.283,19.734,125.218,22.005,290.324-51.682c142.91,244.539-71.397,559.52-675.521,654.315
		C805.417,3298.279,532.079,3130.52,476.139,2925.506 M667.279,4346.269c7.271-212.134,36.299-418.043,84.146-616.205
		c339.774,1040.297,780.872,1711.562,780.872,1711.562c-154.591,313.588-271.411,595.593-326.128,732.567
		C834.292,5641.944,644.833,5006.749,667.279,4346.269 M1341.94,6353.861c21.776-64.051,44.717-127.146,68.021-188.506
		c86.799-10.21,162.243-15.631,218.144-18.494c-84.548,163.695-127.317,295.153-146.86,366.551
		c-0.859-0.935-1.757-1.832-2.691-2.767C1431.068,6459.744,1385.607,6407.412,1341.94,6353.861 M2897.003,7058.945
		c-20.059,104.166-24.696,207.475-14.963,301.908c-126.325-34.582-249.997-77.314-370.272-127.93
		c60.119-37.959,161.862-126.287,240.226-318.951c55.233-135.677,94.701-324.22,134.78-528.946
		c66.244,23.513,180.336,68.668,303.607,138.082C3051.708,6630.215,2942.77,6820.838,2897.003,7058.945 M5063.061,7510.406
		c12.481,149.074-4.084,289.865-144.971,306.47c-177.569,20.88-298.188-219.557-306.51-430.735
		c-8.244-211.254,39.507-379.566,24.887-389.338c-24.887-16.584-182.225,107.678-169.82,468.025
		c5.459,158.523,55.043,277.711,123.33,362.2c-9.619,69.968-37.407,139.513-119.169,180.354
		c-124.244,62.104-314.753-24.867-347.885-426.592c-33.132-401.762,75.042-620.766,57.981-637.809
		c-29.01-28.973-248.49,207.074-215.358,691.667c10.268,150.602,53.4,272.671,114.741,364.909
		c-109.32,115.198-405.333-8.244-446.137-427.049c-45.499-467.99,108.862-647.277,95.35-658.537
		c-22.139-18.36-220.549,77.944-250.093,500.358c-69.508,102.983-164.209,175.448-267.632,178.847
		c-124.264,4.142-211.312-198.753-157.377-488.697c53.782-289.904,202.36-477.473,422.375-497.017
		c186.387-16.583,306.585,86.972,306.585,86.972s281.698-236.999,873.874-169.764c467.74,53.039,709.436,291.984,787.188,385.008
		c-100.007,71.416-204.479,136.994-313.188,195.851l-55.69,36.205C5075.542,7141.735,5050.655,7361.273,5063.061,7510.406
		 M6704.045,4551.93c-28.055,821.141-376.17,1552.601-922.541,2077.884c-260.933-459.113-561.64-708.52-730.086-822.459
		c209.06-72.351,419.607-179.019,536.295-331.719c10.916-14.353,21.262-29.088,31.262-44.051
		c48.935,9.887,102.411,22.464,144.018,22.464c215.662,0,405.751-61.016,556.525-179.877
		c180.393-142.148,300.744-379.452,325.325-633.001c22.521-231.235-39.62-416.516-174.821-521.561
		c-10.992-8.568-22.52-16.336-34.275-23.664c95.616-92.697,156.536-207.457,179.592-384.606
		C6683.282,3982.484,6713.703,4264.772,6704.045,4551.93 M2271.542,6746.253c-96.266,164.591-264.024,180.144-267.116,158.427
		c-3.092-21.738,80.749-68.326,177.016-201.924c96.36-133.557,102.029-236.158,127.394-232.953
		C2333.684,6472.896,2367.923,6581.623,2271.542,6746.253"/>
</g>
</svg>
